<mxfile host="app.diagrams.net" agent="Mozilla/5.0 (Windows NT 10.0; Win64; x64) AppleWebKit/537.36 (KHTML, like Gecko) Chrome/133.0.0.0 Safari/537.36 OPR/118.0.0.0" version="26.1.0">
  <diagram name="StrÃ¡nka-1" id="hlQ9LorAiyW4kVTczd6e">
    <mxGraphModel dx="2860" dy="1119" grid="1" gridSize="10" guides="1" tooltips="1" connect="1" arrows="1" fold="1" page="1" pageScale="1" pageWidth="827" pageHeight="1169" math="0" shadow="0">
      <root>
        <mxCell id="0" />
        <mxCell id="1" parent="0" />
        <mxCell id="ZQDseveAXCD2bQxYw5Ts-8" style="edgeStyle=orthogonalEdgeStyle;rounded=0;orthogonalLoop=1;jettySize=auto;html=1;entryX=0.5;entryY=1;entryDx=0;entryDy=0;startArrow=none;startFill=0;endArrow=none;" edge="1" parent="1" source="ZQDseveAXCD2bQxYw5Ts-1" target="ZQDseveAXCD2bQxYw5Ts-3">
          <mxGeometry relative="1" as="geometry" />
        </mxCell>
        <mxCell id="ZQDseveAXCD2bQxYw5Ts-1" value="Semine" style="whiteSpace=wrap;html=1;aspect=fixed;" vertex="1" parent="1">
          <mxGeometry x="10" y="530" width="80" height="80" as="geometry" />
        </mxCell>
        <mxCell id="ZQDseveAXCD2bQxYw5Ts-19" style="edgeStyle=orthogonalEdgeStyle;rounded=0;orthogonalLoop=1;jettySize=auto;html=1;entryX=0;entryY=0.5;entryDx=0;entryDy=0;endArrow=none;startFill=0;" edge="1" parent="1" source="ZQDseveAXCD2bQxYw5Ts-2" target="ZQDseveAXCD2bQxYw5Ts-15">
          <mxGeometry relative="1" as="geometry" />
        </mxCell>
        <mxCell id="ZQDseveAXCD2bQxYw5Ts-2" value="Troskowitz" style="whiteSpace=wrap;html=1;aspect=fixed;" vertex="1" parent="1">
          <mxGeometry x="270" y="410" width="80" height="80" as="geometry" />
        </mxCell>
        <mxCell id="ZQDseveAXCD2bQxYw5Ts-3" value="Zhelejov" style="whiteSpace=wrap;html=1;aspect=fixed;" vertex="1" parent="1">
          <mxGeometry x="10" y="410" width="80" height="80" as="geometry" />
        </mxCell>
        <mxCell id="ZQDseveAXCD2bQxYw5Ts-11" style="edgeStyle=orthogonalEdgeStyle;rounded=0;orthogonalLoop=1;jettySize=auto;html=1;entryX=1;entryY=0.5;entryDx=0;entryDy=0;endArrow=none;startFill=0;" edge="1" parent="1" source="ZQDseveAXCD2bQxYw5Ts-4" target="ZQDseveAXCD2bQxYw5Ts-3">
          <mxGeometry relative="1" as="geometry" />
        </mxCell>
        <mxCell id="ZQDseveAXCD2bQxYw5Ts-12" style="edgeStyle=orthogonalEdgeStyle;rounded=0;orthogonalLoop=1;jettySize=auto;html=1;entryX=0;entryY=0.5;entryDx=0;entryDy=0;endArrow=none;startFill=0;" edge="1" parent="1" source="ZQDseveAXCD2bQxYw5Ts-4" target="ZQDseveAXCD2bQxYw5Ts-2">
          <mxGeometry relative="1" as="geometry" />
        </mxCell>
        <mxCell id="ZQDseveAXCD2bQxYw5Ts-18" style="edgeStyle=orthogonalEdgeStyle;rounded=0;orthogonalLoop=1;jettySize=auto;html=1;entryX=0.5;entryY=0;entryDx=0;entryDy=0;endArrow=none;startFill=0;" edge="1" parent="1" source="ZQDseveAXCD2bQxYw5Ts-4" target="ZQDseveAXCD2bQxYw5Ts-14">
          <mxGeometry relative="1" as="geometry" />
        </mxCell>
        <mxCell id="ZQDseveAXCD2bQxYw5Ts-4" value="Tachov" style="whiteSpace=wrap;html=1;aspect=fixed;" vertex="1" parent="1">
          <mxGeometry x="140" y="410" width="80" height="80" as="geometry" />
        </mxCell>
        <mxCell id="ZQDseveAXCD2bQxYw5Ts-10" style="edgeStyle=orthogonalEdgeStyle;rounded=0;orthogonalLoop=1;jettySize=auto;html=1;entryX=0.5;entryY=0;entryDx=0;entryDy=0;endArrow=none;startFill=0;" edge="1" parent="1" source="ZQDseveAXCD2bQxYw5Ts-9" target="ZQDseveAXCD2bQxYw5Ts-4">
          <mxGeometry relative="1" as="geometry" />
        </mxCell>
        <mxCell id="ZQDseveAXCD2bQxYw5Ts-9" value="Trosky Castle" style="whiteSpace=wrap;html=1;aspect=fixed;" vertex="1" parent="1">
          <mxGeometry x="140" y="280" width="80" height="80" as="geometry" />
        </mxCell>
        <mxCell id="ZQDseveAXCD2bQxYw5Ts-14" value="Forest" style="whiteSpace=wrap;html=1;aspect=fixed;" vertex="1" parent="1">
          <mxGeometry x="140" y="530" width="80" height="80" as="geometry" />
        </mxCell>
        <mxCell id="ZQDseveAXCD2bQxYw5Ts-15" value="Forest" style="whiteSpace=wrap;html=1;aspect=fixed;" vertex="1" parent="1">
          <mxGeometry x="400" y="410" width="80" height="80" as="geometry" />
        </mxCell>
        <mxCell id="ZQDseveAXCD2bQxYw5Ts-17" style="edgeStyle=orthogonalEdgeStyle;rounded=0;orthogonalLoop=1;jettySize=auto;html=1;entryX=0;entryY=0.5;entryDx=0;entryDy=0;endArrow=none;startFill=0;" edge="1" parent="1" source="ZQDseveAXCD2bQxYw5Ts-16" target="ZQDseveAXCD2bQxYw5Ts-1">
          <mxGeometry relative="1" as="geometry" />
        </mxCell>
        <mxCell id="ZQDseveAXCD2bQxYw5Ts-16" value="Traveler" style="whiteSpace=wrap;html=1;aspect=fixed;" vertex="1" parent="1">
          <mxGeometry x="-120" y="530" width="80" height="80" as="geometry" />
        </mxCell>
      </root>
    </mxGraphModel>
  </diagram>
</mxfile>
